<mxfile host="app.diagrams.net" agent="Mozilla/5.0 (X11; Ubuntu; Linux x86_64; rv:136.0) Gecko/20100101 Firefox/136.0" version="26.1.1">
  <diagram name="Page-1" id="ZBPRfWm0I9pGLl2alG_V">
    <mxGraphModel dx="1007" dy="313" grid="1" gridSize="10" guides="1" tooltips="1" connect="1" arrows="1" fold="1" page="1" pageScale="1" pageWidth="200" pageHeight="160" math="1" shadow="0">
      <root>
        <mxCell id="0" />
        <mxCell id="1" parent="0" />
        <mxCell id="Jr88X3z5THZ83qb8YDeC-1" value="" style="verticalLabelPosition=bottom;verticalAlign=top;html=1;shape=mxgraph.basic.polygon;polyCoords=[[0.64,0.13],[1,1],[1,1],[0.64,1],[0.51,0.76],[0.36,1],[0,1],[0.38,0.13]];polyline=0;fillColor=#E6E6E6;strokeColor=#000000;rotation=90;" vertex="1" parent="1">
          <mxGeometry x="-258" y="55" width="78.58" height="49.56" as="geometry" />
        </mxCell>
        <mxCell id="Jr88X3z5THZ83qb8YDeC-2" value="" style="verticalLabelPosition=bottom;verticalAlign=top;html=1;shape=mxgraph.basic.polygon;polyCoords=[[0.64,0.13],[1,1],[1,1],[0.64,1],[0.51,0.76],[0.36,1],[0,1],[0.38,0.13]];polyline=0;fillColor=#E6E6E6;strokeColor=#000000;rotation=90;" vertex="1" parent="1">
          <mxGeometry x="-258" y="140" width="78.58" height="49.56" as="geometry" />
        </mxCell>
        <mxCell id="Jr88X3z5THZ83qb8YDeC-3" value="" style="verticalLabelPosition=bottom;verticalAlign=top;html=1;shape=mxgraph.basic.polygon;polyCoords=[[0.64,0.13],[1,1],[1,1],[0.64,1],[0.51,0.76],[0.36,1],[0,1],[0.38,0.13]];polyline=0;fillColor=#E6E6E6;strokeColor=#000000;rotation=90;" vertex="1" parent="1">
          <mxGeometry x="-258" y="225" width="78.58" height="49.56" as="geometry" />
        </mxCell>
        <mxCell id="Jr88X3z5THZ83qb8YDeC-4" value="" style="verticalLabelPosition=bottom;verticalAlign=top;html=1;shape=mxgraph.basic.polygon;polyCoords=[[0.64,0.13],[1,1],[1,1],[0.64,1],[0.51,0.76],[0.36,1],[0,1],[0.38,0.13]];polyline=0;fillColor=#E6E6E6;strokeColor=#000000;rotation=90;" vertex="1" parent="1">
          <mxGeometry x="-258" y="309" width="78.58" height="49.56" as="geometry" />
        </mxCell>
        <mxCell id="Jr88X3z5THZ83qb8YDeC-6" value="$$\text{ALU}$$" style="text;html=1;align=center;verticalAlign=middle;whiteSpace=wrap;rounded=0;" vertex="1" parent="1">
          <mxGeometry x="-231.5" y="73.28" width="29" height="17" as="geometry" />
        </mxCell>
        <mxCell id="Jr88X3z5THZ83qb8YDeC-7" value="$$\text{ALU}$$" style="text;html=1;align=center;verticalAlign=middle;whiteSpace=wrap;rounded=0;" vertex="1" parent="1">
          <mxGeometry x="-231.5" y="158.28" width="29" height="17" as="geometry" />
        </mxCell>
        <mxCell id="Jr88X3z5THZ83qb8YDeC-8" value="$$\text{ALU}$$" style="text;html=1;align=center;verticalAlign=middle;whiteSpace=wrap;rounded=0;" vertex="1" parent="1">
          <mxGeometry x="-231.5" y="244.28" width="29" height="17" as="geometry" />
        </mxCell>
        <mxCell id="Jr88X3z5THZ83qb8YDeC-9" value="$$\text{ALU}$$" style="text;html=1;align=center;verticalAlign=middle;whiteSpace=wrap;rounded=0;" vertex="1" parent="1">
          <mxGeometry x="-231.5" y="328.28" width="29" height="17" as="geometry" />
        </mxCell>
        <mxCell id="Jr88X3z5THZ83qb8YDeC-10" value="" style="endArrow=blockThin;html=1;rounded=0;entryX=0.19;entryY=1.009;entryDx=0;entryDy=0;entryPerimeter=0;endFill=1;" edge="1" parent="1" target="Jr88X3z5THZ83qb8YDeC-1">
          <mxGeometry width="50" height="50" relative="1" as="geometry">
            <mxPoint x="-268" y="55" as="sourcePoint" />
            <mxPoint x="-298" y="70" as="targetPoint" />
          </mxGeometry>
        </mxCell>
        <mxCell id="Jr88X3z5THZ83qb8YDeC-11" value="" style="endArrow=blockThin;html=1;rounded=0;entryX=0.19;entryY=1.009;entryDx=0;entryDy=0;entryPerimeter=0;endFill=1;" edge="1" parent="1">
          <mxGeometry width="50" height="50" relative="1" as="geometry">
            <mxPoint x="-268" y="104" as="sourcePoint" />
            <mxPoint x="-244" y="104" as="targetPoint" />
          </mxGeometry>
        </mxCell>
        <mxCell id="Jr88X3z5THZ83qb8YDeC-12" value="" style="endArrow=blockThin;html=1;rounded=0;entryX=0.19;entryY=1.009;entryDx=0;entryDy=0;entryPerimeter=0;endFill=1;" edge="1" parent="1">
          <mxGeometry width="50" height="50" relative="1" as="geometry">
            <mxPoint x="-268" y="140" as="sourcePoint" />
            <mxPoint x="-244" y="140" as="targetPoint" />
          </mxGeometry>
        </mxCell>
        <mxCell id="Jr88X3z5THZ83qb8YDeC-13" value="" style="endArrow=blockThin;html=1;rounded=0;entryX=0.19;entryY=1.009;entryDx=0;entryDy=0;entryPerimeter=0;endFill=1;" edge="1" parent="1">
          <mxGeometry width="50" height="50" relative="1" as="geometry">
            <mxPoint x="-268" y="189" as="sourcePoint" />
            <mxPoint x="-244" y="189" as="targetPoint" />
          </mxGeometry>
        </mxCell>
        <mxCell id="Jr88X3z5THZ83qb8YDeC-14" value="" style="endArrow=blockThin;html=1;rounded=0;entryX=0.19;entryY=1.009;entryDx=0;entryDy=0;entryPerimeter=0;endFill=1;" edge="1" parent="1">
          <mxGeometry width="50" height="50" relative="1" as="geometry">
            <mxPoint x="-268" y="226" as="sourcePoint" />
            <mxPoint x="-244" y="226" as="targetPoint" />
          </mxGeometry>
        </mxCell>
        <mxCell id="Jr88X3z5THZ83qb8YDeC-15" value="" style="endArrow=blockThin;html=1;rounded=0;entryX=0.19;entryY=1.009;entryDx=0;entryDy=0;entryPerimeter=0;endFill=1;" edge="1" parent="1">
          <mxGeometry width="50" height="50" relative="1" as="geometry">
            <mxPoint x="-268" y="274" as="sourcePoint" />
            <mxPoint x="-244" y="274" as="targetPoint" />
          </mxGeometry>
        </mxCell>
        <mxCell id="Jr88X3z5THZ83qb8YDeC-16" value="" style="endArrow=blockThin;html=1;rounded=0;entryX=0.19;entryY=1.009;entryDx=0;entryDy=0;entryPerimeter=0;endFill=1;" edge="1" parent="1">
          <mxGeometry width="50" height="50" relative="1" as="geometry">
            <mxPoint x="-268" y="309" as="sourcePoint" />
            <mxPoint x="-244" y="309" as="targetPoint" />
          </mxGeometry>
        </mxCell>
        <mxCell id="Jr88X3z5THZ83qb8YDeC-17" value="" style="endArrow=blockThin;html=1;rounded=0;entryX=0.19;entryY=1.009;entryDx=0;entryDy=0;entryPerimeter=0;endFill=1;" edge="1" parent="1">
          <mxGeometry width="50" height="50" relative="1" as="geometry">
            <mxPoint x="-268" y="358" as="sourcePoint" />
            <mxPoint x="-244" y="358" as="targetPoint" />
          </mxGeometry>
        </mxCell>
        <mxCell id="Jr88X3z5THZ83qb8YDeC-19" value="" style="verticalLabelPosition=bottom;verticalAlign=top;html=1;shape=mxgraph.basic.polygon;polyCoords=[[0.64,0.13],[1,1],[1,1],[0.64,1],[0.51,0.76],[0.36,1],[0,1],[0.38,0.13]];polyline=0;fillColor=#E6E6E6;strokeColor=#000000;rotation=90;" vertex="1" parent="1">
          <mxGeometry x="-153" y="100" width="78.58" height="49.56" as="geometry" />
        </mxCell>
        <mxCell id="Jr88X3z5THZ83qb8YDeC-20" value="$$\text{ALU}$$" style="text;html=1;align=center;verticalAlign=middle;whiteSpace=wrap;rounded=0;" vertex="1" parent="1">
          <mxGeometry x="-126.5" y="118.28" width="29" height="17" as="geometry" />
        </mxCell>
        <mxCell id="Jr88X3z5THZ83qb8YDeC-21" value="" style="endArrow=blockThin;html=1;rounded=0;exitX=0.503;exitY=0.13;exitDx=0;exitDy=0;exitPerimeter=0;entryX=0.187;entryY=1.01;entryDx=0;entryDy=0;entryPerimeter=0;endFill=1;" edge="1" parent="1" target="Jr88X3z5THZ83qb8YDeC-19">
          <mxGeometry width="50" height="50" relative="1" as="geometry">
            <mxPoint x="-165.3728000000001" y="80.01574000000005" as="sourcePoint" />
            <mxPoint x="-103" y="40" as="targetPoint" />
            <Array as="points">
              <mxPoint x="-153" y="80" />
              <mxPoint x="-153" y="100" />
            </Array>
          </mxGeometry>
        </mxCell>
        <mxCell id="Jr88X3z5THZ83qb8YDeC-23" value="" style="endArrow=blockThin;html=1;rounded=0;exitX=0.503;exitY=0.13;exitDx=0;exitDy=0;exitPerimeter=0;entryX=0.187;entryY=1.01;entryDx=0;entryDy=0;entryPerimeter=0;endFill=1;" edge="1" parent="1">
          <mxGeometry width="50" height="50" relative="1" as="geometry">
            <mxPoint x="-165" y="166" as="sourcePoint" />
            <mxPoint x="-139" y="146" as="targetPoint" />
            <Array as="points">
              <mxPoint x="-153" y="166" />
              <mxPoint x="-153" y="146" />
            </Array>
          </mxGeometry>
        </mxCell>
        <mxCell id="Jr88X3z5THZ83qb8YDeC-25" value="" style="verticalLabelPosition=bottom;verticalAlign=top;html=1;shape=mxgraph.basic.polygon;polyCoords=[[0.64,0.13],[1,1],[1,1],[0.64,1],[0.51,0.76],[0.36,1],[0,1],[0.38,0.13]];polyline=0;fillColor=#E6E6E6;strokeColor=#000000;rotation=90;" vertex="1" parent="1">
          <mxGeometry x="-153" y="270" width="78.58" height="49.56" as="geometry" />
        </mxCell>
        <mxCell id="Jr88X3z5THZ83qb8YDeC-26" value="$$\text{ALU}$$" style="text;html=1;align=center;verticalAlign=middle;whiteSpace=wrap;rounded=0;" vertex="1" parent="1">
          <mxGeometry x="-126.5" y="288.28" width="29" height="17" as="geometry" />
        </mxCell>
        <mxCell id="Jr88X3z5THZ83qb8YDeC-27" value="" style="endArrow=blockThin;html=1;rounded=0;exitX=0.503;exitY=0.13;exitDx=0;exitDy=0;exitPerimeter=0;entryX=0.187;entryY=1.01;entryDx=0;entryDy=0;entryPerimeter=0;endFill=1;" edge="1" parent="1" target="Jr88X3z5THZ83qb8YDeC-25">
          <mxGeometry width="50" height="50" relative="1" as="geometry">
            <mxPoint x="-165" y="250" as="sourcePoint" />
            <mxPoint x="-103" y="210" as="targetPoint" />
            <Array as="points">
              <mxPoint x="-153" y="250" />
              <mxPoint x="-153" y="270" />
            </Array>
          </mxGeometry>
        </mxCell>
        <mxCell id="Jr88X3z5THZ83qb8YDeC-28" value="" style="endArrow=blockThin;html=1;rounded=0;exitX=0.503;exitY=0.13;exitDx=0;exitDy=0;exitPerimeter=0;entryX=0.187;entryY=1.01;entryDx=0;entryDy=0;entryPerimeter=0;endFill=1;" edge="1" parent="1">
          <mxGeometry width="50" height="50" relative="1" as="geometry">
            <mxPoint x="-165" y="336" as="sourcePoint" />
            <mxPoint x="-139" y="316" as="targetPoint" />
            <Array as="points">
              <mxPoint x="-153" y="336" />
              <mxPoint x="-153" y="316" />
            </Array>
          </mxGeometry>
        </mxCell>
        <mxCell id="Jr88X3z5THZ83qb8YDeC-29" value="" style="verticalLabelPosition=bottom;verticalAlign=top;html=1;shape=mxgraph.basic.polygon;polyCoords=[[0.64,0.13],[1,1],[1,1],[0.64,1],[0.51,0.76],[0.36,1],[0,1],[0.38,0.13]];polyline=0;fillColor=#E6E6E6;strokeColor=#000000;rotation=90;" vertex="1" parent="1">
          <mxGeometry x="-48" y="183.28" width="78.58" height="49.56" as="geometry" />
        </mxCell>
        <mxCell id="Jr88X3z5THZ83qb8YDeC-30" value="$$\text{ALU}$$" style="text;html=1;align=center;verticalAlign=middle;whiteSpace=wrap;rounded=0;" vertex="1" parent="1">
          <mxGeometry x="-21.5" y="201.56" width="29" height="17" as="geometry" />
        </mxCell>
        <mxCell id="Jr88X3z5THZ83qb8YDeC-31" value="" style="endArrow=blockThin;html=1;rounded=0;exitX=0.503;exitY=0.13;exitDx=0;exitDy=0;exitPerimeter=0;entryX=0.187;entryY=1.01;entryDx=0;entryDy=0;entryPerimeter=0;endFill=1;" edge="1" parent="1" target="Jr88X3z5THZ83qb8YDeC-29">
          <mxGeometry width="50" height="50" relative="1" as="geometry">
            <mxPoint x="-60" y="125" as="sourcePoint" />
            <mxPoint x="2" y="85" as="targetPoint" />
            <Array as="points">
              <mxPoint x="-48" y="125" />
              <mxPoint x="-48" y="183" />
            </Array>
          </mxGeometry>
        </mxCell>
        <mxCell id="Jr88X3z5THZ83qb8YDeC-32" value="" style="endArrow=blockThin;html=1;rounded=0;exitX=0.503;exitY=0.13;exitDx=0;exitDy=0;exitPerimeter=0;entryX=0.815;entryY=1.002;entryDx=0;entryDy=0;entryPerimeter=0;endFill=1;" edge="1" parent="1" target="Jr88X3z5THZ83qb8YDeC-29">
          <mxGeometry width="50" height="50" relative="1" as="geometry">
            <mxPoint x="-60" y="297" as="sourcePoint" />
            <mxPoint x="-34" y="277" as="targetPoint" />
            <Array as="points">
              <mxPoint x="-48" y="297" />
              <mxPoint x="-48" y="233" />
            </Array>
          </mxGeometry>
        </mxCell>
        <mxCell id="Jr88X3z5THZ83qb8YDeC-34" value="" style="endArrow=blockThin;html=1;rounded=0;entryX=0.19;entryY=1.009;entryDx=0;entryDy=0;entryPerimeter=0;endFill=1;" edge="1" parent="1">
          <mxGeometry width="50" height="50" relative="1" as="geometry">
            <mxPoint x="10" y="209.56" as="sourcePoint" />
            <mxPoint x="34" y="209.56" as="targetPoint" />
          </mxGeometry>
        </mxCell>
        <mxCell id="Jr88X3z5THZ83qb8YDeC-36" value="" style="rounded=0;whiteSpace=wrap;html=1;" vertex="1" parent="1">
          <mxGeometry x="-185" y="59.78" width="20" height="40" as="geometry" />
        </mxCell>
        <mxCell id="Jr88X3z5THZ83qb8YDeC-37" value="" style="triangle;whiteSpace=wrap;html=1;rotation=-90;" vertex="1" parent="1">
          <mxGeometry x="-180" y="89.78" width="10" height="10" as="geometry" />
        </mxCell>
        <mxCell id="Jr88X3z5THZ83qb8YDeC-38" value="" style="endArrow=blockThin;html=1;rounded=0;exitX=0.502;exitY=0.116;exitDx=0;exitDy=0;exitPerimeter=0;entryX=0;entryY=0.5;entryDx=0;entryDy=0;endFill=1;" edge="1" parent="1" source="Jr88X3z5THZ83qb8YDeC-1" target="Jr88X3z5THZ83qb8YDeC-36">
          <mxGeometry width="50" height="50" relative="1" as="geometry">
            <mxPoint x="-170" y="120" as="sourcePoint" />
            <mxPoint x="-120" y="70" as="targetPoint" />
          </mxGeometry>
        </mxCell>
        <mxCell id="Jr88X3z5THZ83qb8YDeC-39" value="" style="rounded=0;whiteSpace=wrap;html=1;" vertex="1" parent="1">
          <mxGeometry x="-185" y="145.78" width="20" height="40" as="geometry" />
        </mxCell>
        <mxCell id="Jr88X3z5THZ83qb8YDeC-40" value="" style="triangle;whiteSpace=wrap;html=1;rotation=-90;" vertex="1" parent="1">
          <mxGeometry x="-180" y="175.78" width="10" height="10" as="geometry" />
        </mxCell>
        <mxCell id="Jr88X3z5THZ83qb8YDeC-41" value="" style="endArrow=blockThin;html=1;rounded=0;exitX=0.502;exitY=0.116;exitDx=0;exitDy=0;exitPerimeter=0;entryX=0;entryY=0.5;entryDx=0;entryDy=0;endFill=1;" edge="1" parent="1" target="Jr88X3z5THZ83qb8YDeC-39">
          <mxGeometry width="50" height="50" relative="1" as="geometry">
            <mxPoint x="-200" y="166" as="sourcePoint" />
            <mxPoint x="-120" y="156" as="targetPoint" />
          </mxGeometry>
        </mxCell>
        <mxCell id="Jr88X3z5THZ83qb8YDeC-42" value="" style="rounded=0;whiteSpace=wrap;html=1;" vertex="1" parent="1">
          <mxGeometry x="-185" y="230.78" width="20" height="40" as="geometry" />
        </mxCell>
        <mxCell id="Jr88X3z5THZ83qb8YDeC-43" value="" style="triangle;whiteSpace=wrap;html=1;rotation=-90;" vertex="1" parent="1">
          <mxGeometry x="-180" y="260.78" width="10" height="10" as="geometry" />
        </mxCell>
        <mxCell id="Jr88X3z5THZ83qb8YDeC-44" value="" style="endArrow=blockThin;html=1;rounded=0;exitX=0.502;exitY=0.116;exitDx=0;exitDy=0;exitPerimeter=0;entryX=0;entryY=0.5;entryDx=0;entryDy=0;endFill=1;" edge="1" parent="1" target="Jr88X3z5THZ83qb8YDeC-42">
          <mxGeometry width="50" height="50" relative="1" as="geometry">
            <mxPoint x="-200" y="251" as="sourcePoint" />
            <mxPoint x="-120" y="241" as="targetPoint" />
          </mxGeometry>
        </mxCell>
        <mxCell id="Jr88X3z5THZ83qb8YDeC-45" value="" style="rounded=0;whiteSpace=wrap;html=1;" vertex="1" parent="1">
          <mxGeometry x="-185" y="314.78" width="20" height="40" as="geometry" />
        </mxCell>
        <mxCell id="Jr88X3z5THZ83qb8YDeC-46" value="" style="triangle;whiteSpace=wrap;html=1;rotation=-90;" vertex="1" parent="1">
          <mxGeometry x="-180" y="344.78" width="10" height="10" as="geometry" />
        </mxCell>
        <mxCell id="Jr88X3z5THZ83qb8YDeC-47" value="" style="endArrow=blockThin;html=1;rounded=0;exitX=0.502;exitY=0.116;exitDx=0;exitDy=0;exitPerimeter=0;entryX=0;entryY=0.5;entryDx=0;entryDy=0;endFill=1;" edge="1" parent="1" target="Jr88X3z5THZ83qb8YDeC-45">
          <mxGeometry width="50" height="50" relative="1" as="geometry">
            <mxPoint x="-200" y="335" as="sourcePoint" />
            <mxPoint x="-120" y="325" as="targetPoint" />
          </mxGeometry>
        </mxCell>
        <mxCell id="Jr88X3z5THZ83qb8YDeC-48" value="" style="rounded=0;whiteSpace=wrap;html=1;" vertex="1" parent="1">
          <mxGeometry x="-80" y="105.56" width="20" height="40" as="geometry" />
        </mxCell>
        <mxCell id="Jr88X3z5THZ83qb8YDeC-49" value="" style="triangle;whiteSpace=wrap;html=1;rotation=-90;" vertex="1" parent="1">
          <mxGeometry x="-75" y="135.55999999999997" width="10" height="10" as="geometry" />
        </mxCell>
        <mxCell id="Jr88X3z5THZ83qb8YDeC-50" value="" style="endArrow=blockThin;html=1;rounded=0;exitX=0.502;exitY=0.116;exitDx=0;exitDy=0;exitPerimeter=0;entryX=0;entryY=0.5;entryDx=0;entryDy=0;endFill=1;" edge="1" parent="1" target="Jr88X3z5THZ83qb8YDeC-48">
          <mxGeometry width="50" height="50" relative="1" as="geometry">
            <mxPoint x="-95" y="125.78" as="sourcePoint" />
            <mxPoint x="-15" y="115.78" as="targetPoint" />
          </mxGeometry>
        </mxCell>
        <mxCell id="Jr88X3z5THZ83qb8YDeC-51" value="" style="rounded=0;whiteSpace=wrap;html=1;" vertex="1" parent="1">
          <mxGeometry x="-80" y="275.56" width="20" height="40" as="geometry" />
        </mxCell>
        <mxCell id="Jr88X3z5THZ83qb8YDeC-52" value="" style="triangle;whiteSpace=wrap;html=1;rotation=-90;" vertex="1" parent="1">
          <mxGeometry x="-75" y="305.55999999999995" width="10" height="10" as="geometry" />
        </mxCell>
        <mxCell id="Jr88X3z5THZ83qb8YDeC-53" value="" style="endArrow=blockThin;html=1;rounded=0;exitX=0.502;exitY=0.116;exitDx=0;exitDy=0;exitPerimeter=0;entryX=0;entryY=0.5;entryDx=0;entryDy=0;endFill=1;" edge="1" parent="1" target="Jr88X3z5THZ83qb8YDeC-51">
          <mxGeometry width="50" height="50" relative="1" as="geometry">
            <mxPoint x="-95" y="295.78" as="sourcePoint" />
            <mxPoint x="-15" y="285.78" as="targetPoint" />
          </mxGeometry>
        </mxCell>
      </root>
    </mxGraphModel>
  </diagram>
</mxfile>
